<?xml version="1.0" encoding="UTF-8"?>
<svg id="Warstwa_1" data-name="Warstwa 1" xmlns="http://www.w3.org/2000/svg" xmlns:xlink="http://www.w3.org/1999/xlink" viewBox="0 0 1080 1080">
  <defs>
    <style>
      .cls-1 {
        fill: #fac300;
      }

      .cls-2 {
        fill: none;
      }

      .cls-3 {
        fill: #ffe68d;
      }

      .cls-4 {
        clip-path: url(#clippath);
      }
    </style>
    <clipPath id="clippath">
      <rect class="cls-2" x="64.74" y="487.87" width="950.52" height="104.25"/>
    </clipPath>
  </defs>
  <g class="cls-4">
    <g>
      <path class="cls-1" d="M290.35,520.85v13.23h22.85v23.63h-22.85v33.01h-29.7v-93.76h54.45v23.89h-24.75,0Z"/>
      <path class="cls-1" d="M378.94,590.71l-4.95-17.08h-27.16l-4.95,17.08h-29.57l32.11-93.75h33.51l32.11,93.75h-31.1ZM360.41,527.27l-6.98,23.76h13.96l-6.98-23.76h0Z"/>
      <path class="cls-1" d="M452.56,520.85v69.86h-29.7v-69.86h-18.4v-23.89h66.51v23.89h-18.4Z"/>
      <path class="cls-3" d="M546.23,530.87c-1.65-2.57-7.11-9.63-17.9-9.63-12.69,0-21.32,12.46-21.32,26.2,0,11.68,6.73,19.26,18.54,19.26,6.22,0,11.93-2.7,17.64-6.8l11.3,21.32c-9.39,6.68-19.3,10.92-33.26,10.92-28.06,0-45.06-17.33-45.06-42.25,0-28.89,22.72-54.58,54.71-54.58,17.13,0,27.67,8.09,33.89,15.67l-18.54,19.9h0Z"/>
      <path class="cls-3" d="M620.99,590.71l-2.03-17.08h-27.16l-7.87,17.08h-29.57l48.49-93.75h33.51l15.74,93.75h-31.1ZM613.5,527.27l-11.17,23.76h13.97l-2.8-23.76Z"/>
      <path class="cls-3" d="M725.2,520.85h-18.4l-12.19,69.86h-29.7l12.18-69.86h-18.4l4.19-23.89h66.51l-4.19,23.89Z"/>
      <path class="cls-3" d="M216.32,535.45l-11.54-47.57-21.97,20.79s-12.77-5.66-37.62-5.66c-28.01,0-37.49,5.66-37.49,5.66l-22.61-20.41-11.25,47.2h142.47Z"/>
      <path class="cls-3" d="M217.81,541.63h-5v6.18h-6.24v6.18h-5.86v6.18h-44.46v-6.18h-5.3v-12.36h-11.58v12.36h-5.3v6.18h-44.46v-6.18h-5.86v-6.18h-6.24v-6.18h-5.14l-7.22,30.33c-.27.56-.41,1.14-.41,1.71,0,9.34,36,16.92,80.42,16.92s80.42-7.58,80.42-16.92c0-.59-.15-1.17-.42-1.74l-7.35-30.3Z"/>
      <path class="cls-1" d="M824.87,590.71h-30.84l-10.15-51.11-10.16,51.11h-30.84l-23.1-93.75h33.38l7.61,50.34,9.27-50.34h30.21l9.26,50.34,7.61-50.34h30.84l-23.1,93.75h.01Z"/>
      <path class="cls-1" d="M856.35,590.71v-93.75h56.61v23.63h-26.91v11.68h22.59v23.37h-22.59v11.43h28.18v23.63h-57.88Z"/>
      <path class="cls-1" d="M991.27,590.71l-34.65-43.28v43.28h-29.19v-93.75h26.53l32.11,40.19v-40.19h29.19v93.75h-23.99Z"/>
    </g>
  </g>
</svg>