<?xml version="1.0" encoding="UTF-8"?>
<svg xmlns="http://www.w3.org/2000/svg" viewBox="0 0 1080 1080">
  <defs>
    <style>
      .cls-1 {
        fill: #fac300;
      }

      .cls-2 {
        fill: #466bbc;
      }
    </style>
  </defs>
  <g id="Warstwa_1" data-name="Warstwa 1">
    <path class="cls-2" d="M673.34,357.93s-43.12-18.88-127.04-18.88c-94.58,0-126.58,18.88-126.58,18.88l-76.34-68.14-68.75,285.14c0,6.45,29.83,36.58,100.31,40.67,2.17.13,4.36.19,6.57.19h329.61c1.1,0,2.19-.02,3.29-.05,72.09-2.09,103.41-40.82,103.41-40.82l-70.28-286.39-74.18,69.39Z"/>
    <ellipse class="cls-2" cx="546.22" cy="574.93" rx="271.59" ry="56.47"/>
    <g>
      <path class="cls-1" d="M275.84,649.44c-.89,3.17-1.79,6.35-2.68,9.52,5.83,1.64,11.67,3.23,17.52,4.77-1.49,5.7-2.99,11.39-4.48,17.09-5.95-1.56-11.9-3.18-17.83-4.85-2.23,7.92-4.46,15.83-6.69,23.75-7.9-2.23-15.78-4.55-23.63-6.97,6.87-22.33,13.74-44.66,20.61-66.99,13.43,4.13,26.94,7.97,40.5,11.5-1.5,5.76-3,11.52-4.51,17.28-6.28-1.64-12.54-3.34-18.79-5.1Z"/>
      <path class="cls-1" d="M332.82,717.09c-.47-4.44-.92-8.89-1.36-13.33-7.22-1.53-14.43-3.13-21.63-4.82-2.28,3.84-4.58,7.67-6.89,11.49-7.93-1.89-15.84-3.87-23.73-5.95,14.52-20.34,28.48-40.94,41.87-61.78,8.38,1.98,16.78,3.84,25.2,5.6,3.31,24.55,7.21,49.12,11.72,73.68-8.41-1.53-16.8-3.16-25.18-4.9ZM328.17,667.59c-3.08,5.38-6.19,10.75-9.33,16.1,3.64.83,7.29,1.64,10.94,2.44-.57-6.18-1.11-12.36-1.61-18.54Z"/>
      <path class="cls-1" d="M400.17,676c-2.53,17.22-5.07,34.45-7.6,51.67-8.06-1.19-16.12-2.47-24.16-3.85,2.94-17.16,5.88-34.32,8.82-51.48-4.73-.81-9.46-1.66-14.18-2.54,1.09-5.85,2.18-11.7,3.27-17.56,16.76,3.12,33.58,5.8,50.45,8.03-.78,5.9-1.56,11.8-2.34,17.7-4.75-.63-9.5-1.29-14.25-1.99Z"/>
      <path class="cls-1" d="M447.6,735.44c-23.22-2.17-37.74-19.33-34.88-40.04,2.87-20.75,20.81-33.95,41.97-32,11.31,1.04,18.49,6.36,24.33,11.95-4.26,4.94-8.59,9.86-12.98,14.75-3.78-4.15-7.39-7.15-13.61-7.72-7.97-.74-14.6,5.29-15.7,15.31-1.1,10.01,4.03,17.94,13.96,18.85,5.52.51,10.83-1.37,15.49-4.86,3.57,5.38,7.2,10.74,10.9,16.08-7.6,5.36-16.16,8.91-29.48,7.69Z"/>
      <path class="cls-1" d="M532.54,738.7c-1.31-4.27-2.6-8.54-3.87-12.82-7.34-.11-14.69-.3-22.03-.57-1.49,4.2-3,8.41-4.53,12.6-8.09-.33-16.18-.75-24.26-1.26,10.26-22.75,19.94-45.66,29.03-68.69,8.55.33,17.1.54,25.66.64,7.92,23.46,16.43,46.82,25.53,70.06-8.51.11-17.02.12-25.53.03ZM518.55,691.01c-1.98,5.87-3.98,11.74-6.02,17.6,3.71.12,7.42.21,11.13.29-1.74-5.96-3.44-11.92-5.11-17.88Z"/>
      <path class="cls-1" d="M590.53,685.44c.82,17.39,1.63,34.78,2.45,52.17-8.12.38-16.25.67-24.38.86-.41-17.4-.82-34.81-1.23-52.21-4.78.11-9.57.19-14.35.23-.05-5.95-.11-11.9-.16-17.86,16.98-.15,33.95-.75,50.91-1.8.37,5.94.73,11.88,1.1,17.82-4.78.29-9.56.55-14.34.78Z"/>
      <path class="cls-1" d="M696.9,727.49c-8.37,1.24-16.76,2.38-25.15,3.42-4.33-12.3-8.55-24.62-12.67-36.97-1.2,12.96-2.51,25.92-3.92,38.88-8.41.9-16.82,1.7-25.24,2.4-8.23-22.76-16.04-45.61-23.43-68.55,8.51-.55,17.01-1.21,25.51-1.98,3.07,12.32,6.22,24.62,9.45,36.91,1.24-12.72,2.38-25.45,3.44-38.17,7.68-.8,15.35-1.69,23.02-2.68,3.95,12.14,7.99,24.26,12.12,36.36.32-12.7.55-25.4.72-38.1,7.81-1.11,15.62-2.32,23.41-3.62-1.99,24.02-4.4,48.05-7.24,72.09Z"/>
      <path class="cls-1" d="M722.49,723.37c-4-23.02-8.01-46.03-12.01-69.05,14.29-2.49,28.54-5.29,42.73-8.42,1.27,5.75,2.54,11.5,3.8,17.25-6.87,1.52-13.75,2.96-20.64,4.32.57,2.86,1.13,5.71,1.7,8.57,5.84-1.16,11.67-2.37,17.49-3.63,1.24,5.69,2.47,11.38,3.71,17.08-5.92,1.29-11.86,2.52-17.8,3.7.55,2.79,1.11,5.59,1.66,8.38,7.47-1.48,14.93-3.05,22.38-4.7,1.27,5.75,2.55,11.5,3.82,17.25-15.56,3.45-31.18,6.53-46.84,9.26Z"/>
      <path class="cls-1" d="M831.11,698.42c-12.18-7.73-24.1-15.66-35.76-23.8,2.69,10.44,5.37,20.89,8.06,31.33-7.8,2.01-15.62,3.92-23.45,5.74-5.29-22.75-10.59-45.51-15.88-68.26,6.64-1.54,13.27-3.16,19.88-4.85,10.48,7.67,21.19,15.16,32.12,22.49-2.72-9.64-5.44-19.28-8.17-28.92,7.24-2.04,14.46-4.17,21.67-6.39,6.87,22.33,13.74,44.66,20.61,66.99-6.35,1.95-12.71,3.84-19.08,5.67Z"/>
    </g>
  </g>
  <g id="Warstwa_2" data-name="Warstwa 2">
    <g>
      <g>
        <rect x="317.77" y="488.59" width="208.89" height="20.63"/>
        <rect x="338.85" y="509.22" width="187.81" height="20.63"/>
        <rect x="358.66" y="529.85" width="150.12" height="20.63"/>
        <rect x="565.77" y="488.59" width="208.89" height="20.63" transform="translate(1340.44 997.8) rotate(-180)"/>
        <rect x="565.77" y="509.22" width="187.81" height="20.63" transform="translate(1319.36 1039.07) rotate(-180)"/>
        <rect x="583.66" y="529.85" width="150.12" height="20.63" transform="translate(1317.44 1080.33) rotate(-180)"/>
      </g>
      <rect x="265.75" y="467.95" width="560.94" height="20.63"/>
    </g>
  </g>
</svg>