<svg width="255" height="28" viewBox="0 0 255 28" fill="none" xmlns="http://www.w3.org/2000/svg">
<g id="FatCat logo" clip-path="url(#clip0_52_229)">
<g id="Group">
<path id="Vector" d="M60.5244 8.86317V12.4119H66.6542V18.7505H60.5244V27.6054H52.5557V2.45328H67.1634V8.86119H60.5225L60.5244 8.86317Z" fill="#FAC300"/>
<path id="Vector_2" d="M84.2919 27.6034L82.9641 23.0224H75.6768L74.349 27.6034H66.4155L75.0306 2.45328H84.0196L92.6347 27.6034H84.2919ZM79.3195 10.585L77.4472 16.9593H81.1937L79.3214 10.585H79.3195Z" fill="#FAC300"/>
<path id="Vector_3" d="M104.042 8.86317V27.6054H96.0734V8.86317H91.1362V2.45328H108.979V8.86119H104.042V8.86317Z" fill="#FAC300"/>
<path id="Vector_4" d="M129.172 11.55C128.73 10.8604 127.265 8.96621 124.37 8.96621C120.965 8.96621 118.65 12.3089 118.65 15.9943C118.65 19.1289 120.455 21.1618 123.622 21.1618C125.291 21.1618 126.822 20.4386 128.356 19.337L131.387 25.0553C128.867 26.8465 126.211 27.9839 122.465 27.9839C114.939 27.9839 110.375 23.3335 110.375 16.6482C110.375 8.89686 116.47 2.00548 125.052 2.00548C129.648 2.00548 132.474 4.17513 134.143 6.20807L129.17 11.548L129.172 11.55Z" fill="#FFE68D"/>
<path id="Vector_5" d="M149.228 27.6034L148.684 23.0224H141.397L139.286 27.6034H131.352L144.36 2.45328H153.349L157.571 27.6034H149.228ZM147.219 10.585L144.223 16.9593H147.969L147.219 10.585Z" fill="#FFE68D"/>
<path id="Vector_6" d="M177.185 8.86317H172.248L168.979 27.6054H161.01L164.279 8.86317H159.342L160.466 2.45526H178.309L177.185 8.86317Z" fill="#FFE68D"/>
</g>
<g id="Group_2">
<path id="Vector_7" d="M40.6641 12.7785L37.5678 0.0161285L31.675 5.59383C31.675 5.59383 28.2498 4.07606 21.5833 4.07606C14.0689 4.07606 11.5269 5.59383 11.5269 5.59383L5.46175 0.117181L2.44385 12.7785H40.6641Z" fill="#FFE68D"/>
<path id="Vector_8" d="M41.0658 14.4369H39.7243V16.0954H38.0499V17.7538H36.4773V19.4123H24.5506V17.7538H23.1288V14.4369H20.0208V17.7538H18.599V19.4123H6.67229V17.7538H5.09969V16.0954H3.42525V14.4369H2.04653L0.109671 22.5746C0.0372097 22.7252 0 22.8797 0 23.0343C0 25.5408 9.65885 27.5737 21.5757 27.5737C33.4926 27.5737 43.1515 25.5408 43.1515 23.0343C43.1515 22.8758 43.1123 22.7192 43.0379 22.5667L41.0658 14.4369Z" fill="#FFE68D"/>
</g>
<path id="Vector_9" d="M203.923 27.6034H195.648L192.924 13.892L190.2 27.6034H181.926L175.728 2.45328H184.683L186.726 15.9586L189.211 2.45328H197.315L199.8 15.9586L201.843 2.45328H210.117L203.919 27.6034H203.923Z" fill="#FAC300"/>
<path id="Vector_10" d="M212.368 27.6034V2.45328H227.555V8.79184H220.336V11.9264H226.398V18.1957H220.336V21.2629H227.896V27.6015H212.368V27.6034Z" fill="#FAC300"/>
<path id="Vector_11" d="M248.565 27.6034L239.268 15.9923V27.6034H231.437V2.45328H238.553L247.168 13.2362V2.45328H255V27.6034H248.565Z" fill="#FAC300"/>
</g>
<defs>
<clipPath id="clip0_52_229">
<rect width="255" height="27.9677" fill="white" transform="translate(0 0.0161285)"/>
</clipPath>
</defs>
</svg>
